<svg width="234" height="66" viewBox="0 0 234 66" fill="none" xmlns="http://www.w3.org/2000/svg">
<g clip-path="url(#clip0_2008_285)">
<path d="M47.4077 40.3415L19.3641 25.1039L29.4619 19.0499L47.4077 29.0099V23.1227L29.4846 13.1279L29.4237 13.0967L11.5902 23.7767L11.5293 23.8079V26.6879L39.4379 41.8595L29.7224 46.9799L11.5305 37.0199V42.9611L29.6197 52.8731L29.6913 52.9043L47.4077 43.2035V40.3415Z" fill="#0F3181"/>
<path d="M53.4289 43.3872V46.3548L29.4634 59.7948L5.50617 46.3548V19.6344L29.4622 6.2028L53.4289 19.6344V22.602H58.8237V16.4616L29.4622 0L0.111328 16.4616V49.5384L29.4622 66L58.8237 49.5384V43.3872H53.4289Z" fill="#0F3181"/>
<path d="M73.1055 42.8147C71.4367 41.9166 70.0451 40.576 69.0824 38.9387C68.1012 37.2453 67.5985 35.3153 67.6282 33.3563C67.5991 31.3948 68.1093 29.4631 69.1027 27.7739C70.076 26.1379 71.4736 24.7982 73.1461 23.8979C74.9142 22.9468 76.8938 22.462 78.8994 22.4891C80.5174 22.4673 82.123 22.7751 83.6192 23.3939C85.0064 23.9758 86.2401 24.8734 87.2229 26.0159L84.6957 28.4003C83.9909 27.6076 83.1248 26.976 82.1559 26.5485C81.187 26.121 80.138 25.9075 79.0799 25.9223C77.7277 25.9019 76.3926 26.2274 75.2001 26.8679C74.0789 27.4766 73.1526 28.392 72.5284 29.5079C71.8966 30.6867 71.5659 32.0044 71.5659 33.3431C71.5659 34.6818 71.8966 35.9996 72.5284 37.1783C73.1583 38.2898 74.0833 39.2038 75.2001 39.8183C76.3908 40.4636 77.7271 40.7893 79.0799 40.7639C80.1408 40.7805 81.1926 40.5651 82.1623 40.1326C83.1321 39.7002 83.9965 39.061 84.6957 38.2595L87.2241 40.6751C86.2414 41.8267 84.9989 42.7257 83.6 43.2971C82.1002 43.9149 80.4917 44.2227 78.8707 44.2019C76.8624 44.2427 74.8774 43.7651 73.1055 42.8147Z" fill="#0F3181"/>
<path d="M92.8368 43.062C91.5647 42.3898 90.5074 41.3707 89.7863 40.122C89.047 38.8238 88.6685 37.3501 88.6906 35.8548C88.666 34.3626 89.0447 32.8916 89.7863 31.5984C90.5136 30.357 91.5696 29.3426 92.8368 28.668C94.2025 27.9717 95.7125 27.6089 97.2441 27.6089C98.7757 27.6089 100.286 27.9717 101.651 28.668C102.919 29.3424 103.975 30.3569 104.702 31.5984C105.42 32.9025 105.796 34.3682 105.796 35.8584C105.796 37.3485 105.42 38.8143 104.702 40.1184C103.981 41.3671 102.923 42.3862 101.651 43.0584C100.286 43.7546 98.7757 44.1174 97.2441 44.1174C95.7125 44.1174 94.2025 43.7546 92.8368 43.0584V43.062ZM100.658 39.5004C101.116 39.0139 101.471 38.4401 101.703 37.813C101.935 37.1859 102.04 36.5183 102.01 35.85C102.04 35.1816 101.935 34.514 101.703 33.8869C101.471 33.2599 101.116 32.686 100.658 32.1996C100.214 31.7424 99.6792 31.3829 99.0889 31.1439C98.4986 30.9049 97.8653 30.7916 97.2291 30.8112C96.5959 30.7909 95.9655 30.904 95.3784 31.1431C94.7913 31.3822 94.2605 31.7421 93.8202 32.1996C93.3664 32.6881 93.0142 33.2625 92.784 33.8892C92.5538 34.516 92.4503 35.1826 92.4795 35.85C92.4503 36.5174 92.5538 37.1839 92.784 37.8107C93.0142 38.4374 93.3664 39.0118 93.8202 39.5004C94.2605 39.9578 94.7913 40.3177 95.3784 40.5568C95.9655 40.7959 96.5959 40.909 97.2291 40.8888C97.8653 40.9083 98.4986 40.795 99.0889 40.556C99.6792 40.317 100.214 39.9575 100.658 39.5004Z" fill="#0F3181"/>
<path d="M125.116 21.511V43.903H121.513V41.8162C120.898 42.5714 120.107 43.1615 119.209 43.5334C118.25 43.9253 117.223 44.1211 116.188 44.1094C114.734 44.1331 113.299 43.7788 112.022 43.081C110.801 42.4056 109.797 41.3966 109.124 40.171C108.432 38.8359 108.07 37.3528 108.07 35.8474C108.07 34.3421 108.432 32.859 109.124 31.5238C109.8 30.3035 110.804 29.2988 112.022 28.6246C113.299 27.9257 114.734 27.5713 116.188 27.5962C117.187 27.5854 118.178 27.7704 119.106 28.141C119.975 28.4953 120.747 29.0523 121.359 29.7658V21.5002H125.115L125.116 21.511ZM119.075 40.2742C119.8 39.8586 120.393 39.2453 120.785 38.5054C121.202 37.684 121.42 36.775 121.42 35.8528C121.42 34.9307 121.202 34.0217 120.785 33.2002C120.39 32.4627 119.798 31.8502 119.075 31.4314C118.326 31.0264 117.489 30.8144 116.639 30.8144C115.788 30.8144 114.951 31.0264 114.202 31.4314C113.478 31.8471 112.885 32.4604 112.493 33.2002C112.075 34.0217 111.858 34.9307 111.858 35.8528C111.858 36.775 112.075 37.684 112.493 38.5054C112.888 39.243 113.48 39.8555 114.202 40.2742C114.947 40.6904 115.787 40.9031 116.639 40.891C117.491 40.9057 118.332 40.6928 119.075 40.2742Z" fill="#0F3181"/>
<path d="M145.08 37.0571H132.488C132.679 38.1887 133.3 39.2019 134.218 39.8843C135.231 40.5991 136.447 40.9635 137.684 40.9223C138.491 40.9471 139.295 40.8046 140.045 40.5038C140.796 40.203 141.476 39.7503 142.045 39.1739L144.062 41.4971C143.326 42.3685 142.387 43.0431 141.328 43.4603C139.975 43.9607 138.536 44.1838 137.096 44.1166C135.656 44.0495 134.244 43.6933 132.944 43.0691C131.65 42.407 130.572 41.3868 129.837 40.1291C129.098 38.831 128.719 37.3572 128.741 35.8619C128.72 34.3806 129.087 32.9197 129.806 31.6259C130.497 30.3861 131.523 29.3672 132.764 28.6859C134.073 27.9709 135.544 27.6064 137.034 27.6275C138.498 27.6045 139.944 27.9621 141.231 28.6655C142.452 29.3464 143.453 30.363 144.118 31.5959C144.826 32.9373 145.181 34.4377 145.152 35.9555C145.142 36.2039 145.122 36.5735 145.08 37.0571ZM133.968 31.7003C133.129 32.4287 132.589 33.4432 132.452 34.5479H141.563C141.441 33.4379 140.905 32.4155 140.063 31.6867C139.22 30.9579 138.134 30.5768 137.023 30.6203C135.91 30.5991 134.827 30.9812 133.972 31.6967L133.968 31.7003Z" fill="#0F3181"/>
<path d="M149.891 43.6066C148.832 43.3468 147.825 42.9086 146.912 42.3106L148.356 39.4426C149.157 39.9627 150.034 40.3546 150.956 40.6042C151.926 40.8892 152.931 41.0378 153.943 41.0458C156.184 41.0458 157.311 40.4458 157.311 39.2674C157.319 39.0034 157.239 38.7443 157.083 38.5317C156.927 38.3191 156.704 38.1653 156.451 38.095C155.557 37.7943 154.637 37.5809 153.703 37.4578C152.61 37.3029 151.529 37.0727 150.468 36.769C149.638 36.5121 148.892 36.0364 148.308 35.3914C147.657 34.6354 147.327 33.654 147.386 32.6566C147.371 31.9332 147.537 31.2175 147.87 30.5758C148.203 29.9341 148.692 29.3872 149.291 28.9858C150.824 27.9941 152.629 27.5122 154.451 27.6082C155.563 27.6078 156.673 27.7354 157.757 27.9886C158.704 28.1822 159.616 28.5222 160.46 28.9966L159.016 31.8646C157.62 31.055 156.031 30.6403 154.419 30.6646C153.555 30.6135 152.692 30.7832 151.91 31.1578C151.658 31.2744 151.443 31.46 151.291 31.6935C151.139 31.927 151.055 32.1988 151.05 32.4778C151.044 32.7633 151.131 33.0428 151.297 33.2745C151.463 33.5063 151.7 33.6777 151.971 33.763C152.892 34.0893 153.841 34.3268 154.807 34.4722C155.874 34.6261 156.928 34.86 157.96 35.1718C158.769 35.4225 159.499 35.8793 160.08 36.4978C160.711 37.2308 161.031 38.1836 160.97 39.151C160.981 39.872 160.807 40.5838 160.464 41.2177C160.122 41.8516 159.623 42.3862 159.015 42.7702C157.419 43.7559 155.562 44.2293 153.692 44.1274C152.407 44.13 151.128 43.9548 149.891 43.6066Z" fill="#0F3181"/>
<path d="M189.296 29.3758C189.93 30.0934 190.414 30.9321 190.718 31.8418C191.022 32.7515 191.141 33.7135 191.066 34.6702V43.903H187.31V35.1538C187.394 34.0131 187.063 32.8804 186.378 31.9666C186.038 31.6021 185.622 31.3173 185.161 31.1325C184.699 30.9477 184.202 30.8674 183.706 30.8974C183.141 30.8741 182.577 30.9741 182.054 31.1906C181.531 31.4071 181.061 31.7349 180.676 32.1514C179.856 33.1552 179.446 34.4341 179.529 35.7298V43.9138H175.772V35.1646C175.856 34.0239 175.525 32.8912 174.84 31.9774C174.5 31.6129 174.085 31.3281 173.623 31.1433C173.161 30.9585 172.665 30.8782 172.168 30.9082C171.601 30.8807 171.035 30.9767 170.509 31.1896C169.982 31.4025 169.508 31.7274 169.118 32.1418C168.306 33.1529 167.905 34.4342 167.992 35.7298V43.9138H164.234V27.793H167.807V29.8498C168.415 29.1247 169.187 28.5571 170.059 28.195C171.014 27.8023 172.038 27.6064 173.069 27.619C174.175 27.5979 175.271 27.8298 176.274 28.297C177.19 28.735 177.958 29.4318 178.486 30.3022C179.167 29.4456 180.045 28.7681 181.045 28.3282C182.136 27.8445 183.318 27.6026 184.51 27.619C185.384 27.5738 186.259 27.7061 187.081 28.0079C187.903 28.3098 188.656 28.775 189.296 29.3758Z" fill="#0F3181"/>
<path d="M196.053 24.4823C195.828 24.2791 195.65 24.0299 195.53 23.7514C195.41 23.4729 195.35 23.1717 195.356 22.8683C195.348 22.5645 195.406 22.2626 195.526 21.9838C195.647 21.7049 195.826 21.456 196.053 21.2543C196.516 20.8218 197.13 20.5891 197.763 20.6063C198.39 20.5879 199 20.8082 199.473 21.2231C199.694 21.4152 199.87 21.6541 199.988 21.9225C200.107 22.1909 200.165 22.4823 200.158 22.7759C200.167 23.0874 200.111 23.3974 199.995 23.6864C199.879 23.9754 199.705 24.2373 199.483 24.4559C199.256 24.6816 198.986 24.8583 198.688 24.9749C198.391 25.0915 198.072 25.1456 197.753 25.1339C197.123 25.1483 196.513 24.9144 196.053 24.4823ZM195.878 27.7931H199.635V43.9103H195.878V27.7931Z" fill="#0F3181"/>
<path d="M214.203 43.0308C213.73 43.4118 213.182 43.6886 212.596 43.8432C211.946 44.0269 211.274 44.117 210.599 44.1108C209.108 44.2064 207.64 43.7075 206.514 42.7224C206.008 42.186 205.618 41.5499 205.37 40.8544C205.121 40.1589 205.019 39.4191 205.07 38.682V30.93H202.43V27.906H205.07V24.2256H208.827V27.906H213.129V30.9288H208.827V38.5992C208.784 39.2505 208.989 39.894 209.401 40.3992C209.618 40.6142 209.878 40.7804 210.164 40.8867C210.45 40.993 210.755 41.0371 211.059 41.016C211.815 41.0471 212.557 40.8105 213.157 40.3476L214.203 43.0308Z" fill="#0F3181"/>
<path d="M231.279 29.3866C231.926 30.0948 232.423 30.9284 232.738 31.8364C233.054 32.7444 233.181 33.7075 233.112 34.6666V43.8994H229.349V35.155C229.435 34.0043 229.08 32.8641 228.356 31.9678C227.986 31.5999 227.544 31.3145 227.057 31.1302C226.57 30.946 226.05 30.867 225.53 30.8986C224.927 30.8675 224.325 30.9629 223.76 31.1788C223.196 31.3947 222.683 31.7264 222.254 32.1526C221.398 33.1504 220.968 34.4471 221.059 35.761V43.9138H217.305V21.511H221.061V29.6638C221.703 28.9859 222.491 28.4652 223.365 28.1422C224.341 27.781 225.375 27.6033 226.416 27.6178C227.303 27.5724 228.19 27.7055 229.025 28.0092C229.86 28.313 230.626 28.7813 231.279 29.3866Z" fill="#0F3181"/>
</g>
<defs>
<clipPath id="clip0_2008_285">
<rect width="233" height="66" fill="white" transform="translate(0.111328)"/>
</clipPath>
</defs>
</svg>
